<svg xmlns="http://www.w3.org/2000/svg" viewBox="0 0 512 512" role="img" aria-label="Excel Diff app icon">
  <defs>
    <linearGradient id="shell" x1="86" y1="54" x2="426" y2="458" gradientUnits="userSpaceOnUse">
      <stop offset="0" stop-color="#16a34a"/>
      <stop offset="0.55" stop-color="#059669"/>
      <stop offset="1" stop-color="#0f766e"/>
    </linearGradient>
    <linearGradient id="sheet" x1="120" y1="106" x2="384" y2="406" gradientUnits="userSpaceOnUse">
      <stop offset="0" stop-color="#ffffff"/>
      <stop offset="1" stop-color="#ecfdf5"/>
    </linearGradient>
    <filter id="shadow" x="54" y="44" width="404" height="428" filterUnits="userSpaceOnUse" color-interpolation-filters="sRGB">
      <feDropShadow dx="0" dy="18" stdDeviation="16" flood-color="#064e3b" flood-opacity="0.28"/>
    </filter>
  </defs>

  <rect width="512" height="512" rx="112" fill="#052e2b"/>
  <rect x="36" y="36" width="440" height="440" rx="96" fill="url(#shell)"/>
  <path d="M90 116C90 96.1 106.1 80 126 80h232l64 66v250c0 19.9-16.1 36-36 36H126c-19.9 0-36-16.1-36-36V116Z" fill="url(#sheet)" filter="url(#shadow)"/>
  <path d="M358 80v48c0 13.3 10.7 24 24 24h40L358 80Z" fill="#bbf7d0"/>

  <rect x="128" y="156" width="112" height="200" rx="18" fill="#dcfce7"/>
  <rect x="272" y="156" width="112" height="200" rx="18" fill="#d1fae5"/>
  <path d="M160 204h192M160 256h192M160 308h192M216 180v152M296 180v152" stroke="#34d399" stroke-width="12" stroke-linecap="round"/>

  <rect x="148" y="220" width="72" height="28" rx="10" fill="#fca5a5"/>
  <rect x="292" y="220" width="72" height="28" rx="10" fill="#86efac"/>
  <rect x="148" y="272" width="72" height="28" rx="10" fill="#fde68a"/>
  <rect x="292" y="272" width="72" height="28" rx="10" fill="#fde68a"/>

  <path d="M256 372l-46-46 46-46 46 46-46 46Z" fill="#0f172a"/>
  <path d="M235 326h42M261 310l16 16-16 16" stroke="#ffffff" stroke-width="16" stroke-linecap="round" stroke-linejoin="round"/>
</svg>
